<?xml version="1.0" encoding="utf-8"?>
<!-- Generator: Adobe Illustrator 22.0.1, SVG Export Plug-In . SVG Version: 6.00 Build 0)  -->
<svg version="1.1" id="Layer_1" xmlns="http://www.w3.org/2000/svg" xmlns:xlink="http://www.w3.org/1999/xlink" x="0px" y="0px"
	 width="25px" height="24px" viewBox="0 0 25 24" style="enable-background:new 0 0 25 24;" xml:space="preserve">
<style type="text/css">
	.st0{fill:url(#SVGID_1_);}
	.st1{fill:url(#SVGID_2_);}
</style>
<g>
	<linearGradient id="SVGID_1_" gradientUnits="userSpaceOnUse" x1="7.3185" y1="3.7472" x2="12.4286" y2="3.7472">
		<stop  offset="0.2848" style="stop-color:#5ACC5A"/>
		<stop  offset="0.8044" style="stop-color:#0AADD7"/>
	</linearGradient>
	<path class="st0" d="M12.4,6.4c-0.1-1.1-0.2-3.4-2-4.1C9.6,2,9.3,2,8.4,1.2C8,0.9,8,0.2,7.9,0.3c-0.2,0-1.1,2.6-0.2,4.6
		c0.9,2,2.9,2.3,3.5,2.4C12.2,7.3,12.5,7.5,12.4,6.4z"/>
	<linearGradient id="SVGID_2_" gradientUnits="userSpaceOnUse" x1="4.0129" y1="14.0745" x2="20.9871" y2="14.0745">
		<stop  offset="0.2848" style="stop-color:#5ACC5A"/>
		<stop  offset="0.8044" style="stop-color:#0AADD7"/>
	</linearGradient>
	<path class="st1" d="M19.3,9.2c-1.6-1.3-4.5-0.9-6.4,1.4c0,0,0,0,0,0c0-1.4,0.5-3.6,2.8-5.5c0.2-0.1,0.2-0.4,0-0.6
		c-0.1-0.2-0.4-0.2-0.6,0c-2.5,2.1-3,4.6-3.1,6.1c-1.7-2.3-4.8-2.7-6.4-1.3c-1.6,1.3-1.8,3.4-1.6,4.9c0.4,3,2.7,5.1,8.4,9.6
		c5.7-4.4,8-6.6,8.4-9.6C21.1,12.6,20.9,10.5,19.3,9.2z"/>
</g>
</svg>
